Coordinates
version=1
nRows=20
nColumns=38
inDegrees=no

Units are S.I. units (second, meters, Newtons, ...)
If the header above contains a line with 'inDegrees', this indicates whether rotational values are in degrees (yes) or radians (no).

endheader
time	pelvis_tilt	pelvis_list	pelvis_rotation	pelvis_tx	pelvis_ty	pelvis_tz	hip_flexion_r	hip_adduction_r	hip_rotation_r	knee_angle_r	ankle_angle_r	subtalar_angle_r	mtp_angle_r	hip_flexion_l	hip_adduction_l	hip_rotation_l	knee_angle_l	ankle_angle_l	subtalar_angle_l	mtp_angle_l	lumbar_extension	lumbar_bending	lumbar_rotation	arm_flex_r	arm_add_r	arm_rot_r	elbow_flex_r	pro_sup_r	wrist_flex_r	wrist_dev_r	arm_flex_l	arm_add_l	arm_rot_l	elbow_flex_l	pro_sup_l	wrist_flex_l	wrist_dev_l
1.48	-0.0861969	1.27974	-1.46183	1.01713	0.488148	0.941986	-0.523599	0.0740201	-0.196196	0.211255	-0.129928	0	0	0.0486437	-0.0678563	-0.274002	0.141917	-0.252259	0	0	-0.44683	0.0585921	-0.138179	-0.205478	-0.261309	-0.113469	0.834341	0.386495	0	0	-0.238396	-0.26394	-0.00901909	0.837078	1.49032	0	0
1.49	-0.0876299	1.28538	-1.45727	1.01793	0.478367	0.940149	-0.523599	0.0737026	-0.199463	0.222683	-0.122757	0	0	0.0437967	-0.0580276	-0.264765	0.0937253	-0.261844	0	0	-0.442468	0.0590722	-0.141201	-0.202436	-0.264147	-0.108554	0.831635	0.382229	0	0	-0.239788	-0.260717	-0.0192559	0.833226	1.49795	0	0
1.5	-0.0882573	1.29029	-1.45484	1.01848	0.46837	0.938492	-0.523599	0.0726293	-0.20124	0.23491	-0.117365	0	0	0.0404122	-0.050469	-0.258366	0.0612003	-0.268848	0	0	-0.438541	0.0583548	-0.142491	-0.199884	-0.266571	-0.103975	0.82791	0.378167	0	0	-0.24123	-0.258876	-0.0272107	0.829654	1.50079	0	0
1.51	-0.0877091	1.29389	-1.45527	1.01883	0.458204	0.937064	-0.523599	0.0703324	-0.201917	0.248478	-0.113823	0	0	0.0391335	-0.0453989	-0.2572	0.0491501	-0.271605	0	0	-0.435872	0.0566292	-0.141398	-0.198388	-0.268499	-0.100952	0.824432	0.373752	0	0	-0.242728	-0.257067	-0.0349639	0.826753	1.50149	0	0
1.52	-0.0845248	1.29571	-1.45811	1.01925	0.447968	0.935907	-0.523599	0.0669063	-0.20376	0.263585	-0.112102	0	0	0.0405929	-0.0419484	-0.26008	0.0601171	-0.269455	0	0	-0.435312	0.0545418	-0.13989	-0.198186	-0.270327	-0.0989144	0.822479	0.368515	0	0	-0.244311	-0.255979	-0.0414158	0.824874	1.5038	0	0
1.53	-0.0795886	1.29687	-1.463	1.0197	0.437482	0.934945	-0.523599	0.0622156	-0.206238	0.280324	-0.112061	0	0	0.0442841	-0.0396448	-0.266397	0.0892701	-0.264812	0	0	-0.435147	0.052052	-0.137712	-0.199261	-0.271533	-0.0989958	0.82124	0.362311	0	0	-0.246073	-0.255641	-0.045751	0.822818	1.50712	0	0
1.54	-0.0740678	1.29798	-1.46927	1.02017	0.426703	0.934131	-0.523599	0.0567278	-0.208	0.298935	-0.112668	0	0	0.0482286	-0.0378696	-0.272963	0.128213	-0.259965	0	0	-0.434578	0.0494344	-0.134648	-0.201654	-0.27197	-0.101892	0.820802	0.355851	0	0	-0.248161	-0.254743	-0.0505638	0.820828	1.50596	0	0
1.55	-0.0688476	1.29903	-1.47576	1.0207	0.415649	0.933425	-0.523599	0.0510729	-0.208195	0.317918	-0.115679	0	0	0.050229	-0.0357765	-0.277339	0.167459	-0.253877	0	0	-0.433699	0.0468659	-0.130532	-0.206307	-0.27304	-0.105086	0.821893	0.35153	0	0	-0.250763	-0.253381	-0.0559017	0.819512	1.50367	0	0
1.56	-0.0626636	1.30015	-1.48336	1.02134	0.404367	0.932886	-0.523599	0.0448395	-0.207166	0.337556	-0.120943	0	0	0.048857	-0.0319631	-0.277811	0.197756	-0.247751	0	0	-0.43247	0.0440737	-0.126062	-0.212156	-0.274664	-0.107869	0.823128	0.349277	0	0	-0.253634	-0.252037	-0.0606005	0.818367	1.50026	0	0
1.57	-0.0541406	1.30145	-1.4929	1.02208	0.392935	0.932563	-0.523599	0.0376236	-0.206833	0.359326	-0.128323	0	0	0.0438239	-0.0253164	-0.271703	0.211969	-0.249293	0	0	-0.430814	0.0406035	-0.121788	-0.218431	-0.276237	-0.110417	0.823306	0.348548	0	0	-0.256569	-0.251258	-0.0638206	0.816469	1.49966	0	0
1.58	-0.0438929	1.30306	-1.50311	1.02293	0.381352	0.932429	-0.523599	0.0301598	-0.206424	0.383193	-0.13747	0	0	0.0376994	-0.017464	-0.261556	0.214574	-0.263716	0	0	-0.428356	0.0368841	-0.118298	-0.224512	-0.276507	-0.114664	0.821967	0.346978	0	0	-0.259585	-0.250803	-0.0663068	0.813466	1.50293	0	0
1.59	-0.0334368	1.30477	-1.5133	1.02385	0.369643	0.932507	-0.523599	0.0226187	-0.204767	0.40908	-0.14831	0	0	0.031346	-0.010359	-0.251714	0.211925	-0.289083	0	0	-0.42532	0.0332677	-0.115288	-0.229825	-0.276365	-0.118839	0.819082	0.346112	0	0	-0.263067	-0.249787	-0.06994	0.809615	1.50751	0	0
1.6	-0.0237993	1.30658	-1.52241	1.02483	0.357717	0.93278	-0.523599	0.0153265	-0.201578	0.435718	-0.1623	0	0	0.0240064	-0.00447133	-0.243395	0.206732	-0.320386	0	0	-0.421659	0.0301	-0.1131	-0.234919	-0.276001	-0.122947	0.815458	0.346335	0	0	-0.267455	-0.248371	-0.0746229	0.806233	1.51104	0	0
1.61	-0.0169831	1.30823	-1.5285	1.0259	0.345613	0.933214	-0.523014	0.00839606	-0.19699	0.463551	-0.179872	0	0	0.0162746	-0.000741556	-0.237869	0.204135	-0.34619	0	0	-0.417765	0.0280632	-0.111602	-0.240308	-0.275612	-0.127639	0.812502	0.346805	0	0	-0.272259	-0.245734	-0.0814875	0.802632	1.51081	0	0
1.62	-0.0143888	1.31177	-1.52971	1.02706	0.333262	0.933567	-0.513379	0.00198474	-0.192391	0.495784	-0.201288	0	0	0.0119964	0.000757264	-0.234557	0.207913	-0.362973	0	0	-0.410983	0.0273289	-0.111029	-0.245928	-0.274766	-0.133343	0.809154	0.346787	0	0	-0.277732	-0.24284	-0.0884343	0.798612	1.5078	0	0
1.63	-0.0151625	1.31495	-1.52701	1.02828	0.320747	0.933957	-0.501993	-0.00413392	-0.188136	0.531804	-0.225991	0	0	0.0085033	0.000550946	-0.23237	0.217881	-0.369309	0	0	-0.403795	0.0276041	-0.110987	-0.252645	-0.274566	-0.138011	0.806769	0.348075	0	0	-0.283828	-0.240651	-0.0933303	0.794787	1.50513	0	0
1.64	-0.0173052	1.31637	-1.5224	1.0296	0.308259	0.93454	-0.489808	-0.010508	-0.184426	0.571573	-0.254862	0	0	0.00308442	-0.000249805	-0.230247	0.230831	-0.364333	0	0	-0.39838	0.028712	-0.11173	-0.25978	-0.274957	-0.142033	0.805913	0.350329	0	0	-0.289702	-0.238864	-0.0967283	0.791336	1.50076	0	0
1.65	-0.0175401	1.31639	-1.51954	1.03095	0.296009	0.935388	-0.475431	-0.018278	-0.181613	0.615216	-0.288811	0	0	-0.0043055	-0.000290291	-0.228857	0.244796	-0.35005	0	0	-0.394903	0.0297877	-0.113574	-0.265561	-0.274599	-0.147513	0.805486	0.351438	0	0	-0.294712	-0.237623	-0.098675	0.787688	1.49378	0	0
1.66	-0.0121132	1.31455	-1.52191	1.03226	0.284115	0.936604	-0.459229	-0.0279876	-0.179866	0.661353	-0.329512	0	0	-0.0140317	0.00109154	-0.230482	0.259228	-0.332317	0	0	-0.393982	0.0294269	-0.116073	-0.270242	-0.273717	-0.152732	0.804622	0.35354	0	0	-0.298259	-0.23807	-0.0969457	0.783318	1.49089	0	0
1.67	-0.000847914	1.31104	-1.53037	1.03343	0.272545	0.938172	-0.441165	-0.0395261	-0.177976	0.708952	-0.381264	0	0	-0.0263577	0.00382212	-0.236053	0.273117	-0.313695	0	0	-0.395318	0.0271457	-0.11847	-0.273973	-0.27221	-0.157632	0.803056	0.358052	0	0	-0.300477	-0.24041	-0.0915833	0.778234	1.4936	0	0
